<svg width="46" height="37" viewBox="0 0 46 37" fill="none" xmlns="http://www.w3.org/2000/svg">
<path d="M45.5227 4.38755C43.8197 5.14248 42.0151 5.64286 40.1665 5.87263C42.1133 4.69583 43.5716 2.85791 44.2752 0.694647C42.4393 1.78444 40.43 2.5513 38.3349 2.96187C37.0551 1.59231 35.3927 0.639687 33.564 0.227983C31.7353 -0.183721 29.8251 -0.0354394 28.0819 0.653526C26.3386 1.34249 24.8431 2.54023 23.79 4.09088C22.7369 5.64153 22.1749 7.47327 22.1772 9.34772C22.1757 10.0672 22.2555 10.7846 22.4148 11.4862C18.6988 11.3015 15.0633 10.3358 11.7454 8.65209C8.42744 6.96839 5.50154 4.60448 3.15828 1.7144C1.96832 3.77453 1.60695 6.2103 2.14756 8.52717C2.68816 10.844 4.09021 12.8683 6.06904 14.1891C4.57943 14.1589 3.12034 13.761 1.82167 13.0307V13.1396C1.82005 15.2982 2.56568 17.3908 3.93188 19.062C5.29807 20.7332 7.2006 21.8799 9.31639 22.3075C8.51548 22.522 7.69019 22.6318 6.86107 22.6343C6.26966 22.6336 5.67959 22.5773 5.09874 22.4659C5.69558 24.3229 6.85848 25.9466 8.42441 27.1095C9.99034 28.2724 11.8808 28.9162 13.831 28.9508C10.5188 31.5386 6.4308 32.9338 2.22762 32.911C1.48296 32.9098 0.73906 32.8636 0 32.7724C4.25303 35.5417 9.22124 37.0108 14.2964 36.9999C31.4936 36.9999 40.8991 22.7531 40.8991 10.3873C40.8991 9.98136 40.8991 9.58534 40.8991 9.18932C42.711 7.8734 44.2762 6.24785 45.5227 4.38755V4.38755Z" fill="#014260"/>
</svg>
