<svg width="38" height="37" viewBox="0 0 38 37" fill="none" xmlns="http://www.w3.org/2000/svg">
<path d="M34.5422 0.00377897H3.66752C3.26971 -0.0161507 2.87187 0.0428916 2.49701 0.177525C2.12216 0.312159 1.77767 0.519712 1.48345 0.788188C1.18923 1.05666 0.951089 1.38076 0.782789 1.74176C0.614488 2.10276 0.519377 2.49353 0.502899 2.89149V33.8354C0.52537 34.6676 0.865979 35.4595 1.45466 36.0482C2.04333 36.6369 2.8353 36.9775 3.66752 37H34.5323C35.3428 36.9665 36.1079 36.6162 36.6627 36.0243C37.2176 35.4325 37.5179 34.6464 37.4991 33.8354V2.91126C37.5089 2.52255 37.4388 2.13597 37.293 1.7755C37.1473 1.41502 36.929 1.08833 36.6517 0.815712C36.3744 0.543093 36.0442 0.330353 35.6813 0.190684C35.3184 0.0510144 34.9307 -0.0126031 34.5422 0.00377897ZM11.9944 30.8686H6.69367V14.383H11.9944V30.8686ZM9.52202 11.8809C8.96139 11.8693 8.41666 11.6923 7.95616 11.3724C7.49566 11.0524 7.13986 10.6036 6.93336 10.0822C6.72686 9.5609 6.67887 8.99018 6.79538 8.44166C6.91188 7.89314 7.18768 7.39122 7.58827 6.99882C7.98885 6.60641 8.49636 6.34098 9.04717 6.2358C9.59797 6.13063 10.1676 6.19039 10.6846 6.40759C11.2015 6.62479 11.6429 6.98979 11.9533 7.4568C12.2637 7.9238 12.4294 8.47204 12.4295 9.0328C12.4481 9.42158 12.3831 9.80982 12.2388 10.1713C12.0945 10.5328 11.8743 10.8591 11.593 11.1282C11.3118 11.3972 10.976 11.6028 10.6085 11.7309C10.241 11.8591 9.85026 11.9069 9.46269 11.871L9.52202 11.8809ZM31.3578 30.8686H26.0373V21.8494C26.0373 19.6936 25.2659 18.2201 23.3474 18.2201C22.746 18.2265 22.1617 18.4205 21.6759 18.7751C21.1901 19.1297 20.8271 19.6271 20.6377 20.1979C20.4935 20.6139 20.4297 21.0536 20.4498 21.4934V30.8884H15.1491V14.383H20.4498V16.6773C20.933 15.8416 21.6327 15.1516 22.475 14.68C23.3173 14.2083 24.2712 13.9725 25.2363 13.9973C28.7075 13.9973 31.338 16.2916 31.338 21.2363L31.3578 30.8686Z" fill="#014260"/>
</svg>
