<svg width="38" height="37" viewBox="0 0 38 37" fill="none" xmlns="http://www.w3.org/2000/svg">
<path d="M35.4858 0H2.56945C2.02661 0 1.50601 0.215637 1.12216 0.59948C0.738319 0.983323 0.522675 1.50393 0.522675 2.04677V34.9532C0.522675 35.4961 0.738319 36.0167 1.12216 36.4005C1.50601 36.7844 2.02661 37 2.56945 37H19.0029V22.3562H14.5831V16.9575H19.0029V13.0024C19.0029 8.21672 22.3153 5.61625 26.5868 5.61625C28.6336 5.61625 30.8287 5.77445 31.3329 5.84366V10.7875H27.9316C25.6178 10.7875 25.1729 11.895 25.1729 13.5067V16.9476H30.7001L29.9783 22.3463H25.1729V36.9901H35.466C36.0071 36.9875 36.5252 36.7707 36.9069 36.3871C37.2886 36.0036 37.5029 35.4845 37.5029 34.9433V2.04677C37.503 1.50903 37.2914 0.99287 36.9139 0.609868C36.5365 0.226866 36.0235 0.00779327 35.4858 0V0Z" fill="#014260"/>
</svg>
