<svg width="140" height="50" viewBox="0 0 140 50" fill="none" xmlns="http://www.w3.org/2000/svg">
<g clip-path="url(#clip0)">
<path d="M44.1388 19.5322L29.6494 5.05076C26.8584 2.2613 22.3334 2.2613 19.5424 5.05076L5.05302 19.5322C2.26204 22.3217 2.26204 26.8443 5.05302 29.6338L19.5424 44.1152C22.3333 46.9047 26.8584 46.9047 29.6494 44.1152L44.1388 29.6338C46.9297 26.8443 46.9297 22.3217 44.1388 19.5322Z" fill="white"/>
<path d="M22.6939 27.632V34.5238H17.7944V14.2113H25.9043C27.4584 14.2113 28.8309 14.4996 30.022 15.0763C31.2225 15.6436 32.1484 16.4574 32.7997 17.5176C33.4605 18.5687 33.7909 19.7638 33.7909 21.1031C33.7909 23.084 33.0789 24.6699 31.6552 25.8603C30.2407 27.0414 28.2959 27.632 25.8206 27.632H22.6939ZM22.6939 23.8514H25.9043C26.8535 23.8514 27.5746 23.6142 28.0679 23.1399C28.5704 22.6656 28.8216 21.9959 28.8216 21.1309C28.8216 20.1823 28.5658 19.4243 28.0539 18.8569C27.5421 18.2896 26.8441 18.0013 25.9602 17.992H22.6939V23.8514Z" fill="#59BBE9"/>
<path d="M60.8385 21.303L59.2891 21.1914C57.8094 21.1914 56.8602 21.6564 56.4415 22.5866V32.1429H51.7375V17.048H56.1484L56.3019 18.9872C57.093 17.5083 58.1956 16.7689 59.6101 16.7689C60.1126 16.7689 60.55 16.8248 60.9222 16.9364L60.8385 21.303ZM60.724 24.456C60.724 22.9492 61.0171 21.6099 61.6034 20.4381C62.1897 19.2569 63.0318 18.3501 64.1299 17.7176C65.2279 17.0852 66.5168 16.7689 67.9964 16.7689C70.2577 16.7689 72.0397 17.4712 73.3424 18.8756C74.6453 20.2706 75.2967 22.1726 75.2967 24.5814V24.7489C75.2967 27.1019 74.6406 28.9713 73.3285 30.3572C72.0258 31.7336 70.2577 32.4219 68.0243 32.4219C65.8747 32.4219 64.1485 31.7801 62.8456 30.4967C61.5429 29.2038 60.8403 27.4554 60.7379 25.2511L60.724 24.456ZM65.428 24.7489C65.428 26.1439 65.6467 27.167 66.0841 27.8181C66.5214 28.4692 67.1681 28.7947 68.0243 28.7947C69.6993 28.7947 70.5554 27.5066 70.5926 24.9302V24.456C70.5926 21.7494 69.7272 20.3962 67.9964 20.3962C66.4237 20.3962 65.5722 21.5635 65.4419 23.8979L65.428 24.7489ZM101.282 32.4219C98.9647 32.4219 97.0897 31.7336 95.6565 30.3572C94.2235 28.9713 93.5069 27.1717 93.5069 24.9581V24.5675C93.5069 23.0236 93.7907 21.6611 94.3584 20.4799C94.9354 19.2987 95.7729 18.3873 96.871 17.7455C97.969 17.0945 99.2718 16.7689 100.779 16.7689C102.901 16.7689 104.576 17.4293 105.804 18.75C107.033 20.0614 107.647 21.8936 107.647 24.2467V26.0742H98.2947C98.4622 26.9206 98.8298 27.5856 99.3975 28.0692C99.965 28.5529 100.7 28.7947 101.603 28.7947C103.092 28.7947 104.255 28.2738 105.092 27.2322L107.242 29.7712C106.656 30.5804 105.823 31.2268 104.743 31.7104C103.673 32.1848 102.52 32.4219 101.282 32.4219ZM100.751 20.3962C99.3741 20.3962 98.5552 21.3076 98.2947 23.1306H103.041V22.7679C103.059 22.0145 102.868 21.4332 102.468 21.0241C102.068 20.6055 101.496 20.3962 100.751 20.3962ZM115.224 28.7947C115.884 28.7947 116.396 28.618 116.759 28.2645C117.122 27.9018 117.299 27.3995 117.289 26.7579H121.7C121.7 28.4133 121.105 29.7712 119.914 30.8314C118.732 31.8918 117.206 32.4219 115.335 32.4219C113.139 32.4219 111.408 31.7336 110.143 30.3572C108.877 28.9807 108.244 27.0741 108.244 24.6373V24.4419C108.244 22.9167 108.524 21.5727 109.082 20.4101C109.649 19.2383 110.464 18.3407 111.525 17.7176C112.585 17.0852 113.842 16.7689 115.293 16.7689C117.257 16.7689 118.816 17.3131 119.97 18.4012C121.123 19.4894 121.7 20.9636 121.7 22.8237H117.289C117.289 22.0424 117.099 21.4425 116.717 21.0241C116.336 20.6055 115.824 20.3962 115.182 20.3962C113.963 20.3962 113.251 21.1729 113.046 22.726C112.981 23.2189 112.948 23.8979 112.948 24.7629C112.948 26.2788 113.13 27.3298 113.493 27.9157C113.856 28.5017 114.433 28.7947 115.224 28.7947ZM127.574 18.6663C128.579 17.4014 129.863 16.7689 131.427 16.7689C133.092 16.7689 134.349 17.2619 135.196 18.2477C136.043 19.2336 136.475 20.6892 136.493 22.6144V32.1429H131.775V22.726C131.775 21.9262 131.613 21.3402 131.287 20.9682C130.961 20.5869 130.408 20.3962 129.626 20.3962C128.658 20.3962 127.974 20.7031 127.574 21.3169V32.1429H122.87V10.7143H127.574V18.6663Z" fill="white"/>
<path d="M92.8265 15.6111H86.7267V32.1429H81.8272V15.6111H75.8391V11.8304H92.8265V15.6111Z" fill="#59BBE9"/>
</g>
<defs>
<clipPath id="clip0">
<rect width="139.362" height="50" fill="white"/>
</clipPath>
</defs>
</svg>
