<svg width="180" height="37" viewBox="0 0 180 37" fill="none" xmlns="http://www.w3.org/2000/svg">
<path d="M176.542 0.00377897H145.668C145.27 -0.0161507 144.872 0.0428916 144.497 0.177525C144.122 0.312159 143.778 0.519712 143.483 0.788188C143.189 1.05666 142.951 1.38076 142.783 1.74176C142.614 2.10276 142.519 2.49353 142.503 2.89149V33.8354C142.525 34.6676 142.866 35.4595 143.455 36.0482C144.043 36.6369 144.835 36.9775 145.668 37H176.532C177.343 36.9665 178.108 36.6162 178.663 36.0243C179.218 35.4325 179.518 34.6464 179.499 33.8354V2.91126C179.509 2.52255 179.439 2.13597 179.293 1.7755C179.147 1.41502 178.929 1.08833 178.652 0.815712C178.374 0.543093 178.044 0.330353 177.681 0.190684C177.318 0.0510144 176.931 -0.0126031 176.542 0.00377897ZM153.994 30.8686H148.694V14.383H153.994V30.8686ZM151.522 11.8809C150.961 11.8693 150.417 11.6923 149.956 11.3724C149.496 11.0524 149.14 10.6036 148.933 10.0822C148.727 9.5609 148.679 8.99018 148.795 8.44166C148.912 7.89314 149.188 7.39122 149.588 6.99882C149.989 6.60641 150.496 6.34098 151.047 6.2358C151.598 6.13063 152.168 6.19039 152.685 6.40759C153.202 6.62479 153.643 6.98979 153.953 7.4568C154.264 7.9238 154.429 8.47204 154.43 9.0328C154.448 9.42158 154.383 9.80982 154.239 10.1713C154.095 10.5328 153.874 10.8591 153.593 11.1282C153.312 11.3972 152.976 11.6028 152.609 11.7309C152.241 11.8591 151.85 11.9069 151.463 11.871L151.522 11.8809ZM173.358 30.8686H168.037V21.8494C168.037 19.6936 167.266 18.2201 165.347 18.2201C164.746 18.2265 164.162 18.4205 163.676 18.7751C163.19 19.1297 162.827 19.6271 162.638 20.1979C162.493 20.6139 162.43 21.0536 162.45 21.4934V30.8884H157.149V14.383H162.45V16.6773C162.933 15.8416 163.633 15.1516 164.475 14.68C165.317 14.2083 166.271 13.9725 167.236 13.9973C170.707 13.9973 173.338 16.2916 173.338 21.2363L173.358 30.8686Z" fill="#014260"/>
<path d="M110.486 0H77.5694C77.0266 0 76.506 0.215637 76.1222 0.59948C75.7383 0.983323 75.5227 1.50393 75.5227 2.04677V34.9532C75.5227 35.4961 75.7383 36.0167 76.1222 36.4005C76.506 36.7844 77.0266 37 77.5694 37H94.0029V22.3562H89.5831V16.9575H94.0029V13.0024C94.0029 8.21672 97.3153 5.61625 101.587 5.61625C103.634 5.61625 105.829 5.77445 106.333 5.84366V10.7875H102.932C100.618 10.7875 100.173 11.895 100.173 13.5067V16.9476H105.7L104.978 22.3463H100.173V36.9901H110.466C111.007 36.9875 111.525 36.7707 111.907 36.3871C112.289 36.0036 112.503 35.4845 112.503 34.9433V2.04677C112.503 1.50903 112.291 0.99287 111.914 0.609868C111.536 0.226866 111.023 0.00779327 110.486 0V0Z" fill="#014260"/>
<path d="M45.5227 4.38755C43.8197 5.14248 42.0151 5.64286 40.1665 5.87263C42.1133 4.69583 43.5716 2.85791 44.2752 0.694647C42.4393 1.78444 40.43 2.5513 38.3349 2.96187C37.0551 1.59231 35.3927 0.639687 33.564 0.227983C31.7353 -0.183721 29.8251 -0.0354394 28.0819 0.653526C26.3386 1.34249 24.8431 2.54023 23.79 4.09088C22.7369 5.64153 22.1749 7.47327 22.1772 9.34772C22.1757 10.0672 22.2555 10.7846 22.4148 11.4862C18.6988 11.3015 15.0633 10.3358 11.7454 8.65209C8.42744 6.96839 5.50154 4.60448 3.15828 1.7144C1.96832 3.77453 1.60695 6.2103 2.14756 8.52717C2.68816 10.844 4.09021 12.8683 6.06904 14.1891C4.57943 14.1589 3.12034 13.761 1.82167 13.0307V13.1396C1.82005 15.2982 2.56568 17.3908 3.93188 19.062C5.29807 20.7332 7.2006 21.8799 9.31639 22.3075C8.51548 22.522 7.69019 22.6318 6.86107 22.6343C6.26966 22.6336 5.67959 22.5773 5.09874 22.4659C5.69558 24.3229 6.85848 25.9466 8.42441 27.1095C9.99034 28.2724 11.8808 28.9162 13.831 28.9508C10.5188 31.5386 6.4308 32.9338 2.22762 32.911C1.48296 32.9098 0.73906 32.8636 0 32.7724C4.25303 35.5417 9.22124 37.0108 14.2964 36.9999C31.4936 36.9999 40.8991 22.7531 40.8991 10.3873C40.8991 9.98136 40.8991 9.58534 40.8991 9.18932C42.711 7.8734 44.2762 6.24785 45.5227 4.38755V4.38755Z" fill="#014260"/>
</svg>
