<svg width="498" height="290" viewBox="0 0 498 290" fill="none" xmlns="http://www.w3.org/2000/svg">
<path d="M460.174 0H29.8868C28.3315 -1.76751e-06 26.7914 0.306333 25.3545 0.901514C23.9176 1.4967 22.612 2.36906 21.5123 3.46882C20.4125 4.56857 19.5402 5.87417 18.945 7.31106C18.3498 8.74796 18.0435 10.288 18.0435 11.8433V251.591C18.0435 253.147 18.3498 254.687 18.945 256.124C19.5402 257.561 20.4125 258.866 21.5123 259.966C22.612 261.066 23.9176 261.938 25.3545 262.533C26.7914 263.128 28.3315 263.435 29.8868 263.435H460.174C463.315 263.435 466.327 262.187 468.549 259.966C470.77 257.745 472.017 254.732 472.017 251.591V11.8433C472.017 8.70226 470.77 5.68988 468.549 3.46883C466.327 1.24778 463.315 1.78484e-06 460.174 0V0Z" fill="#25313C"/>
<path d="M456.139 20.9307H33.9218V259.105H456.139V20.9307Z" fill="white"/>
<path d="M244.67 14.4353C247.061 14.4353 249 12.4965 249 10.1048C249 7.71321 247.061 5.77441 244.67 5.77441C242.278 5.77441 240.339 7.71321 240.339 10.1048C240.339 12.4965 242.278 14.4353 244.67 14.4353Z" fill="white"/>
<path d="M428.644 21.8486H62.1565V256.563H428.644V21.8486Z" fill="#E6E6E6"/>
<path d="M418.164 51.2876H72.6361V242.677H418.164V51.2876Z" fill="white"/>
<path d="M428.487 21.6406H62V37.2103H428.487V21.6406Z" fill="#59BBE9"/>
<path d="M73.5702 32.4863C75.1639 32.4863 76.4559 31.1943 76.4559 29.6006C76.4559 28.0068 75.1639 26.7148 73.5702 26.7148C71.9764 26.7148 70.6844 28.0068 70.6844 29.6006C70.6844 31.1943 71.9764 32.4863 73.5702 32.4863Z" fill="white"/>
<path d="M84.5237 32.4863C86.1174 32.4863 87.4094 31.1943 87.4094 29.6006C87.4094 28.0068 86.1174 26.7148 84.5237 26.7148C82.93 26.7148 81.638 28.0068 81.638 29.6006C81.638 31.1943 82.93 32.4863 84.5237 32.4863Z" fill="white"/>
<path d="M95.4772 32.4863C97.071 32.4863 98.363 31.1943 98.363 29.6006C98.363 28.0068 97.071 26.7148 95.4772 26.7148C93.8835 26.7148 92.5915 28.0068 92.5915 29.6006C92.5915 31.1943 93.8835 32.4863 95.4772 32.4863Z" fill="white"/>
<path d="M192.817 71.146H104.032V222.819H192.817V71.146Z" fill="#E6E6E6"/>
<path d="M282.129 71.146H208.142V112.896H282.129V71.146Z" fill="#59BBE9"/>
<path d="M282.129 124.522H208.142V169.443H282.129V124.522Z" fill="#E6E6E6"/>
<path d="M282.129 181.069H208.142V222.819H282.129V181.069Z" fill="#E6E6E6"/>
<path d="M386.768 71.146H297.984V137.244H386.768V71.146Z" fill="#E6E6E6"/>
<path d="M386.768 156.72H297.984V222.818H386.768V156.72Z" fill="#E6E6E6"/>
<path d="M300.826 45.2892C289.44 35.6813 275.506 29.5901 260.721 27.7566C245.936 25.9231 230.937 28.4266 217.548 34.9623C204.16 41.498 192.96 51.7841 185.311 64.5691C177.662 77.354 173.895 92.0865 174.466 106.974C175.038 121.861 179.924 136.261 188.53 148.422C197.137 160.583 209.093 169.98 222.942 175.471C236.792 180.961 251.939 182.307 266.54 179.345C281.142 176.383 294.567 169.242 305.183 158.789L399.453 238.334C400.888 239.546 402.745 240.14 404.617 239.983C406.488 239.826 408.221 238.932 409.434 237.498C410.647 236.064 411.24 234.206 411.083 232.334C410.926 230.463 410.032 228.73 408.598 227.517L408.588 227.509L314.317 147.964C325.269 132.247 329.956 113.006 327.46 94.0133C324.964 75.0203 315.466 57.6439 300.826 45.2892V45.2892ZM294.749 140.304C287.405 149.008 277.645 155.338 266.703 158.495C255.761 161.652 244.129 161.493 233.277 158.039C222.426 154.584 212.842 147.99 205.738 139.089C198.635 130.188 194.33 119.38 193.369 108.033C192.407 96.6856 194.833 85.308 200.337 75.3389C205.842 65.3698 214.18 57.2569 224.296 52.0263C234.411 46.7957 245.851 44.6822 257.168 45.9531C268.485 47.224 279.171 51.8222 287.875 59.1662H287.875C293.654 64.0425 298.416 70.0092 301.889 76.7258C305.362 83.4424 307.478 90.7773 308.116 98.3117C308.754 105.846 307.902 113.432 305.609 120.638C303.315 127.843 299.625 134.526 294.749 140.304V140.304Z" fill="#3F3D56"/>
<path opacity="0.3" d="M213.61 147.178C202.564 137.856 195.428 124.722 193.618 110.382C191.807 96.0427 195.456 81.5468 203.839 69.7729C202.738 70.8817 201.674 72.0428 200.647 73.2564C195.77 79.0354 192.08 85.7182 189.786 92.9233C187.493 100.128 186.641 107.715 187.279 115.249C187.917 122.784 190.034 130.118 193.507 136.835C196.98 143.552 201.742 149.518 207.521 154.395C213.3 159.271 219.982 162.961 227.188 165.255C234.393 167.548 241.979 168.4 249.513 167.762C257.048 167.124 264.383 165.008 271.099 161.535C277.816 158.062 283.783 153.3 288.659 147.521C289.684 146.306 290.65 145.061 291.556 143.787C281.36 154.032 267.684 160.067 253.245 160.695C238.805 161.323 224.657 156.498 213.61 147.178V147.178Z" fill="black"/>
<path d="M483.872 254.774H442.667V251.805C442.667 251.728 442.651 251.651 442.622 251.58C442.592 251.508 442.549 251.443 442.494 251.389C442.44 251.334 442.375 251.291 442.303 251.261C442.232 251.232 442.155 251.216 442.078 251.216H427.95C427.873 251.216 427.796 251.232 427.725 251.261C427.654 251.291 427.589 251.334 427.534 251.389C427.479 251.443 427.436 251.508 427.406 251.58C427.377 251.651 427.362 251.728 427.362 251.805V254.774H418.532V251.805C418.532 251.728 418.517 251.651 418.487 251.58C418.457 251.508 418.414 251.443 418.359 251.389C418.305 251.334 418.24 251.291 418.168 251.261C418.097 251.232 418.021 251.216 417.943 251.216H403.816C403.738 251.216 403.662 251.232 403.59 251.261C403.519 251.291 403.454 251.334 403.399 251.389C403.345 251.443 403.301 251.508 403.272 251.58C403.242 251.651 403.227 251.728 403.227 251.805V251.805V254.774H394.397V251.805C394.397 251.728 394.382 251.651 394.352 251.58C394.323 251.508 394.279 251.443 394.225 251.389C394.17 251.334 394.105 251.291 394.034 251.261C393.962 251.232 393.886 251.216 393.809 251.216H379.681C379.603 251.216 379.527 251.232 379.456 251.261C379.384 251.291 379.319 251.334 379.265 251.389C379.21 251.443 379.167 251.508 379.137 251.58C379.107 251.651 379.092 251.728 379.092 251.805V251.805V254.774H370.262V251.805C370.262 251.728 370.247 251.651 370.218 251.58C370.188 251.508 370.145 251.443 370.09 251.389C370.035 251.334 369.97 251.291 369.899 251.261C369.828 251.232 369.751 251.216 369.674 251.216H355.546C355.469 251.216 355.392 251.232 355.321 251.261C355.249 251.291 355.184 251.334 355.13 251.389C355.075 251.443 355.032 251.508 355.002 251.58C354.973 251.651 354.957 251.728 354.957 251.805V254.774H346.128V251.805C346.128 251.728 346.112 251.651 346.083 251.58C346.053 251.508 346.01 251.443 345.955 251.389C345.901 251.334 345.836 251.291 345.764 251.261C345.693 251.232 345.616 251.216 345.539 251.216H331.411C331.334 251.216 331.257 251.232 331.186 251.261C331.115 251.291 331.05 251.334 330.995 251.389C330.94 251.443 330.897 251.508 330.867 251.58C330.838 251.651 330.823 251.728 330.823 251.805V251.805V254.774H321.993V251.805C321.993 251.728 321.978 251.651 321.948 251.58C321.919 251.508 321.875 251.443 321.82 251.389C321.766 251.334 321.701 251.291 321.63 251.261C321.558 251.232 321.482 251.216 321.404 251.216H307.277C307.199 251.216 307.123 251.232 307.051 251.261C306.98 251.291 306.915 251.334 306.86 251.389C306.806 251.443 306.762 251.508 306.733 251.58C306.703 251.651 306.688 251.728 306.688 251.805V251.805V254.774H297.858V251.805C297.858 251.728 297.843 251.651 297.813 251.58C297.784 251.508 297.74 251.443 297.686 251.389C297.631 251.334 297.566 251.291 297.495 251.261C297.423 251.232 297.347 251.216 297.27 251.216H186.603C186.526 251.216 186.449 251.232 186.378 251.261C186.306 251.291 186.241 251.334 186.187 251.389C186.132 251.443 186.089 251.508 186.059 251.58C186.029 251.651 186.014 251.728 186.014 251.805V251.805V254.774H177.184V251.805C177.184 251.728 177.169 251.651 177.14 251.58C177.11 251.508 177.067 251.443 177.012 251.389C176.957 251.334 176.892 251.291 176.821 251.261C176.75 251.232 176.673 251.216 176.596 251.216H162.468C162.391 251.216 162.314 251.232 162.243 251.261C162.171 251.291 162.107 251.334 162.052 251.389C161.997 251.443 161.954 251.508 161.924 251.58C161.895 251.651 161.879 251.728 161.879 251.805V251.805V254.774H153.05V251.805C153.05 251.728 153.034 251.651 153.005 251.58C152.975 251.508 152.932 251.443 152.877 251.389C152.823 251.334 152.758 251.291 152.686 251.261C152.615 251.232 152.538 251.216 152.461 251.216H138.333C138.256 251.216 138.179 251.232 138.108 251.261C138.037 251.291 137.972 251.334 137.917 251.389C137.862 251.443 137.819 251.508 137.789 251.58C137.76 251.651 137.745 251.728 137.745 251.805V251.805V254.774H128.915V251.805C128.915 251.728 128.9 251.651 128.87 251.58C128.841 251.508 128.797 251.443 128.742 251.389C128.688 251.334 128.623 251.291 128.552 251.261C128.48 251.232 128.404 251.216 128.326 251.216H114.199C114.121 251.216 114.045 251.232 113.973 251.261C113.902 251.291 113.837 251.334 113.782 251.389C113.728 251.443 113.684 251.508 113.655 251.58C113.625 251.651 113.61 251.728 113.61 251.805V251.805V254.774H104.78V251.805C104.78 251.728 104.765 251.651 104.735 251.58C104.706 251.508 104.662 251.443 104.608 251.389C104.553 251.334 104.488 251.291 104.417 251.261C104.345 251.232 104.269 251.216 104.192 251.216H90.0638C89.9865 251.216 89.91 251.232 89.8386 251.261C89.7672 251.291 89.7023 251.334 89.6476 251.389C89.5929 251.443 89.5496 251.508 89.52 251.58C89.4904 251.651 89.4752 251.728 89.4752 251.805V251.805V254.774H80.6454V251.805C80.6454 251.728 80.6302 251.651 80.6006 251.58C80.571 251.508 80.5276 251.443 80.473 251.389C80.4183 251.334 80.3534 251.291 80.282 251.261C80.2106 251.232 80.134 251.216 80.0567 251.216H65.9291C65.773 251.216 65.6232 251.278 65.5128 251.389C65.4024 251.499 65.3404 251.649 65.3404 251.805V254.774H56.5106V251.805C56.5106 251.728 56.4954 251.651 56.4658 251.58C56.4363 251.508 56.3929 251.443 56.3382 251.389C56.2836 251.334 56.2187 251.291 56.1473 251.261C56.0759 251.232 55.9993 251.216 55.922 251.216H41.7943C41.6382 251.216 41.4885 251.278 41.3781 251.389C41.2677 251.499 41.2057 251.649 41.2057 251.805V254.774H14.1276C10.3807 254.774 6.78734 256.262 4.1379 258.912C1.48845 261.561 0 265.155 0 268.901V275.29C8.92414e-06 279.037 1.48845 282.63 4.1379 285.279C6.78734 287.929 10.3807 289.417 14.1276 289.417H483.872C487.619 289.417 491.213 287.929 493.862 285.279C496.511 282.63 498 279.037 498 275.29V268.901C498 267.046 497.634 265.209 496.924 263.495C496.215 261.781 495.174 260.224 493.862 258.912C492.55 257.6 490.993 256.559 489.279 255.849C487.565 255.139 485.728 254.774 483.872 254.774V254.774Z" fill="#25313C"/>
</svg>
