<svg width="505" height="419" viewBox="0 0 505 419" fill="none" xmlns="http://www.w3.org/2000/svg">
<path d="M319.498 413.754L308.692 409.074L301.28 353.359H202.572L194.538 408.846L184.871 413.818C184.408 414.056 184.037 414.447 183.818 414.929C183.599 415.411 183.545 415.955 183.663 416.472C183.782 416.99 184.067 417.451 184.473 417.781C184.878 418.111 185.38 418.291 185.898 418.291H318.607C319.137 418.291 319.651 418.102 320.061 417.757C320.471 417.412 320.752 416.931 320.857 416.397C320.962 415.863 320.884 415.308 320.636 414.826C320.388 414.344 319.986 413.965 319.498 413.754V413.754Z" fill="#E6E6E6"/>
<path d="M494.908 360.771H10.0274C7.48339 360.765 5.04551 359.721 3.24861 357.869C1.45172 356.016 0.442583 353.506 0.442566 350.89V280.56H504.493V350.89C504.493 353.506 503.484 356.016 501.687 357.869C499.89 359.721 497.452 360.765 494.908 360.771V360.771Z" fill="#CCCCCC"/>
<path d="M505 313.8H0V12.8752C0.00355068 9.71717 1.22484 6.68953 3.39589 4.45649C5.56694 2.22346 8.51047 0.96739 11.5807 0.963867H493.419C496.49 0.967421 499.433 2.2235 501.604 4.45653C503.775 6.68956 504.996 9.71718 505 12.8752V313.8Z" fill="#3F3D56"/>
<path d="M474.838 292.154H30.1617C27.7947 292.152 25.5254 291.183 23.8517 289.462C22.178 287.74 21.2365 285.406 21.2338 282.972V32.1834C21.2365 29.7487 22.1779 27.4145 23.8516 25.6929C25.5253 23.9712 27.7947 23.0028 30.1617 23H474.838C477.205 23.0028 479.475 23.9712 481.149 25.6929C482.822 27.4145 483.764 29.7487 483.766 32.1834V282.972C483.764 285.406 482.822 287.74 481.148 289.462C479.475 291.183 477.205 292.152 474.838 292.154Z" fill="white"/>
<path d="M470.653 418.872H40.0624C39.7627 418.872 39.4752 418.75 39.2632 418.532C39.0513 418.314 38.9323 418.018 38.9323 417.71C38.9323 417.402 39.0513 417.106 39.2632 416.888C39.4752 416.67 39.7627 416.547 40.0624 416.547H470.653C470.952 416.547 471.24 416.67 471.452 416.888C471.664 417.106 471.783 417.402 471.783 417.71C471.783 418.018 471.664 418.314 471.452 418.532C471.24 418.75 470.952 418.872 470.653 418.872Z" fill="#CCCCCC"/>
<circle cx="253" cy="157" r="99" fill="#014260"/>
<g clip-path="url(#clip0)">
<path d="M227.139 151.532L212.649 137.051C209.858 134.261 205.333 134.261 202.542 137.051L188.053 151.532C185.262 154.322 185.262 158.844 188.053 161.634L202.542 176.115C205.333 178.905 209.858 178.905 212.649 176.115L227.139 161.634C229.93 158.844 229.93 154.322 227.139 151.532Z" fill="white"/>
<path d="M205.694 159.632V166.524H200.794V146.211H208.904C210.458 146.211 211.831 146.5 213.022 147.076C214.222 147.643 215.148 148.457 215.8 149.517C216.46 150.569 216.791 151.764 216.791 153.103C216.791 155.084 216.079 156.67 214.655 157.86C213.241 159.041 211.296 159.632 208.821 159.632H205.694ZM205.694 155.851H208.904C209.854 155.851 210.575 155.614 211.068 155.14C211.57 154.665 211.822 153.996 211.822 153.131C211.822 152.182 211.566 151.424 211.054 150.857C210.542 150.29 209.844 150.001 208.96 149.992H205.694V155.851Z" fill="#59BBE9"/>
<path d="M243.838 153.303L242.289 153.191C240.809 153.191 239.86 153.656 239.442 154.587V164.143H234.738V149.048H239.148L239.302 150.987C240.093 149.508 241.196 148.769 242.61 148.769C243.113 148.769 243.55 148.825 243.922 148.936L243.838 153.303ZM243.724 156.456C243.724 154.949 244.017 153.61 244.603 152.438C245.19 151.257 246.032 150.35 247.13 149.718C248.228 149.085 249.517 148.769 250.996 148.769C253.258 148.769 255.04 149.471 256.342 150.876C257.645 152.271 258.297 154.173 258.297 156.581V156.749C258.297 159.102 257.641 160.971 256.328 162.357C255.026 163.734 253.258 164.422 251.024 164.422C248.875 164.422 247.148 163.78 245.846 162.497C244.543 161.204 243.84 159.455 243.738 157.251L243.724 156.456ZM248.428 156.749C248.428 158.144 248.647 159.167 249.084 159.818C249.521 160.469 250.168 160.795 251.024 160.795C252.699 160.795 253.555 159.507 253.593 156.93V156.456C253.593 153.749 252.727 152.396 250.996 152.396C249.424 152.396 248.572 153.564 248.442 155.898L248.428 156.749ZM284.282 164.422C281.965 164.422 280.09 163.734 278.657 162.357C277.223 160.971 276.507 159.172 276.507 156.958V156.568C276.507 155.024 276.791 153.661 277.358 152.48C277.935 151.299 278.773 150.387 279.871 149.746C280.969 149.095 282.272 148.769 283.779 148.769C285.901 148.769 287.576 149.429 288.804 150.75C290.033 152.061 290.647 153.894 290.647 156.247V158.074H281.295C281.462 158.921 281.83 159.586 282.397 160.069C282.965 160.553 283.7 160.795 284.603 160.795C286.092 160.795 287.255 160.274 288.092 159.232L290.242 161.771C289.656 162.58 288.823 163.227 287.743 163.71C286.673 164.185 285.52 164.422 284.282 164.422ZM283.751 152.396C282.374 152.396 281.555 153.308 281.295 155.131H286.041V154.768C286.059 154.015 285.868 153.433 285.468 153.024C285.068 152.606 284.496 152.396 283.751 152.396ZM298.224 160.795C298.884 160.795 299.396 160.618 299.759 160.265C300.122 159.902 300.299 159.4 300.289 158.758H304.7C304.7 160.413 304.105 161.771 302.914 162.831C301.732 163.892 300.206 164.422 298.335 164.422C296.139 164.422 294.408 163.734 293.143 162.357C291.877 160.981 291.244 159.074 291.244 156.637V156.442C291.244 154.917 291.524 153.573 292.082 152.41C292.649 151.238 293.464 150.341 294.525 149.718C295.585 149.085 296.842 148.769 298.293 148.769C300.257 148.769 301.816 149.313 302.97 150.401C304.123 151.489 304.7 152.964 304.7 154.824H300.289C300.289 154.042 300.099 153.443 299.717 153.024C299.336 152.606 298.824 152.396 298.182 152.396C296.963 152.396 296.251 153.173 296.046 154.726C295.981 155.219 295.948 155.898 295.948 156.763C295.948 158.279 296.13 159.33 296.493 159.916C296.856 160.502 297.433 160.795 298.224 160.795ZM310.574 150.666C311.579 149.401 312.863 148.769 314.427 148.769C316.092 148.769 317.349 149.262 318.196 150.248C319.043 151.234 319.475 152.689 319.493 154.614V164.143H314.775V154.726C314.775 153.926 314.613 153.34 314.287 152.968C313.961 152.587 313.408 152.396 312.626 152.396C311.658 152.396 310.974 152.703 310.574 153.317V164.143H305.87V142.714H310.574V150.666Z" fill="white"/>
<path d="M275.827 147.611H269.727V164.143H264.827V147.611H258.839V143.83H275.827V147.611Z" fill="#59BBE9"/>
</g>
<defs>
<clipPath id="clip0">
<rect width="139.362" height="50" fill="white" transform="translate(183 132)"/>
</clipPath>
</defs>
</svg>
