<svg width="445" height="686" viewBox="0 0 445 686" fill="none" xmlns="http://www.w3.org/2000/svg">
<path d="M16.276 109.725C11.1775 86.4767 25.9003 63.494 49.1611 58.3927L262.226 11.6659C285.488 6.5645 308.477 21.2759 313.575 44.5249L429.876 574.835C434.975 598.083 420.252 621.066 396.991 626.167L183.926 672.894C160.665 677.996 137.676 663.284 132.577 640.035L16.276 109.725Z" fill="#25313C" stroke="#25313C" stroke-width="2.89447"/>
<path fill-rule="evenodd" clip-rule="evenodd" d="M128.535 64.3306C130.138 63.9791 131.152 62.3956 130.801 60.7936C130.449 59.1917 128.865 58.1781 127.263 58.5296C125.66 58.8811 124.645 60.4646 124.997 62.0665C125.348 63.6685 126.932 64.6821 128.535 64.3306Z" fill="white"/>
<path fill-rule="evenodd" clip-rule="evenodd" d="M196.192 51.5198C198.863 50.9339 200.554 48.2947 199.968 45.6248C199.383 42.9549 196.743 41.2655 194.071 41.8514C191.4 42.4372 189.709 45.0765 190.295 47.7463C190.88 50.4162 193.52 52.1056 196.192 51.5198Z" fill="white"/>
<path fill-rule="evenodd" clip-rule="evenodd" d="M143.436 55.9961L175.843 48.889C176.912 48.6547 177.968 49.3305 178.202 50.3984C178.436 51.4663 177.76 52.5221 176.691 52.7564L144.284 59.8635C143.216 60.0978 142.16 59.422 141.925 58.3541C141.691 57.2862 142.368 56.2304 143.436 55.9961Z" fill="white"/>
<path d="M30.6681 192.358C30.5613 191.872 30.8694 191.391 31.3562 191.284L32.8932 190.947L42.9649 236.872L41.4279 237.209C40.9411 237.316 40.4599 237.007 40.3532 236.521L30.6681 192.358Z" fill="white"/>
<path d="M43.2842 249.886C43.1775 249.399 43.4856 248.918 43.9724 248.811L45.5094 248.474L55.5811 294.399L54.0441 294.736C53.5573 294.843 53.0761 294.535 52.9693 294.048L43.2842 249.886Z" fill="white"/>
<path d="M20.8084 147.4C20.7017 146.914 21.0097 146.432 21.4965 146.326L23.0335 145.989L28.5465 171.127L27.0095 171.464C26.5227 171.57 26.0415 171.262 25.9347 170.776L20.8084 147.4Z" fill="white"/>
<path d="M336.177 140.277L338.178 139.839C338.786 139.705 339.388 140.09 339.521 140.699L355.366 212.947C355.499 213.555 355.114 214.157 354.505 214.29L352.505 214.729L336.177 140.277Z" fill="white"/>
<path fill-rule="evenodd" clip-rule="evenodd" d="M82.1741 67.9122L82.1213 67.6715C81.7699 66.0694 80.1874 65.055 78.5852 65.405C78.5843 65.4052 78.5835 65.4053 78.5826 65.4055L78.5801 65.4061C78.4995 65.4238 78.4205 65.4447 78.343 65.4685L78.3408 65.4586L49.0769 71.8764C34.3841 75.0986 25.0852 89.6144 28.3056 104.299L145.773 639.929C148.994 654.614 163.515 663.906 178.207 660.683L397.075 612.684C411.768 609.462 421.067 594.946 417.846 580.262L300.378 44.631C297.158 29.9459 282.637 20.6548 267.945 23.8769L238.682 30.2946L238.684 30.3045C238.604 30.3153 238.523 30.3295 238.442 30.3471L238.44 30.3476L238.437 30.3482C236.857 30.6962 235.85 32.2429 236.161 33.8233L236.493 35.3347C238.6 44.9462 232.501 54.4503 222.871 56.5621L103.693 82.6988C94.0627 84.8108 84.5472 78.7335 82.4389 69.1199L82.1741 67.9122Z" fill="white"/>
<path d="M78.5852 65.405L78.2764 63.9911L78.5852 65.405ZM78.5826 65.4055L78.2726 63.9919L78.272 63.992L78.5826 65.4055ZM78.5801 65.4061L78.2695 63.9926L78.2689 63.9927L78.5801 65.4061ZM78.343 65.4685L76.9293 65.7785L77.2659 67.3133L78.7679 66.8519L78.343 65.4685ZM78.3408 65.4586L79.7544 65.1485L79.4444 63.7349L78.0308 64.0449L78.3408 65.4586ZM49.0769 71.8764L49.3869 73.29L49.0769 71.8764ZM267.945 23.8769L268.255 25.2906L267.945 23.8769ZM238.682 30.2946L238.372 28.8809L236.958 29.191L237.268 30.6046L238.682 30.2946ZM238.684 30.3045L238.877 31.7388L240.434 31.5293L240.098 29.9945L238.684 30.3045ZM238.442 30.3471L238.134 28.9332L238.133 28.9333L238.442 30.3471ZM238.44 30.3476L238.13 28.9339L238.129 28.9341L238.44 30.3476ZM238.437 30.3482L238.127 28.9347L238.126 28.9348L238.437 30.3482ZM236.161 33.8233L234.741 34.1031L234.744 34.1183L234.747 34.1333L236.161 33.8233ZM80.7076 67.9815L80.7604 68.2223L83.5877 67.6022L83.5349 67.3614L80.7076 67.9815ZM83.5349 67.3614C83.0125 64.9792 80.6592 63.4706 78.2764 63.9911L78.894 66.8189C79.7157 66.6394 80.5273 67.1595 80.7076 67.9815L83.5349 67.3614ZM78.2764 63.9911C78.2751 63.9913 78.2739 63.9916 78.2726 63.9919L78.8927 66.8192C78.8931 66.8191 78.8935 66.819 78.894 66.8189L78.2764 63.9911ZM78.8907 66.8196L78.8933 66.819L78.272 63.992L78.2695 63.9926L78.8907 66.8196ZM78.2689 63.9927C78.15 64.0189 78.0329 64.0497 77.918 64.085L78.7679 66.8519C78.808 66.8396 78.8491 66.8288 78.8913 66.8195L78.2689 63.9927ZM79.7566 65.1585L79.7544 65.1485L76.9272 65.7686L76.9293 65.7785L79.7566 65.1585ZM49.3869 73.29L78.6508 66.8722L78.0308 64.0449L48.7669 70.4627L49.3869 73.29ZM29.7192 103.989C26.6702 90.0858 35.4742 76.3412 49.3869 73.29L48.7669 70.4627C33.294 73.856 23.5002 89.143 26.892 104.609L29.7192 103.989ZM147.187 639.619L29.7192 103.989L26.892 104.609L144.36 640.239L147.187 639.619ZM177.897 659.27C163.985 662.321 150.236 653.523 147.187 639.619L144.36 640.239C147.752 655.706 163.045 665.49 178.517 662.097L177.897 659.27ZM396.765 611.27L177.897 659.27L178.517 662.097L397.385 614.098L396.765 611.27ZM416.433 580.572C419.482 594.475 410.678 608.219 396.765 611.27L397.385 614.098C412.858 610.704 422.652 595.417 419.26 579.952L416.433 580.572ZM298.965 44.9411L416.433 580.572L419.26 579.952L301.792 44.321L298.965 44.9411ZM268.255 25.2906C282.167 22.2395 295.916 31.0374 298.965 44.9411L301.792 44.321C298.4 28.8544 283.107 19.0701 267.635 22.4633L268.255 25.2906ZM238.992 31.7082L268.255 25.2906L267.635 22.4633L238.372 28.8809L238.992 31.7082ZM240.098 29.9945L240.095 29.9846L237.268 30.6046L237.27 30.6145L240.098 29.9945ZM238.751 31.761C238.793 31.7517 238.835 31.7444 238.877 31.7388L238.491 28.8702C238.372 28.8862 238.253 28.9072 238.134 28.9332L238.751 31.761ZM238.749 31.7614L238.752 31.7608L238.133 28.9333L238.13 28.9339L238.749 31.7614ZM238.748 31.7617L238.75 31.7611L238.129 28.9341L238.127 28.9347L238.748 31.7617ZM237.581 33.5434C237.421 32.7332 237.938 31.94 238.749 31.7616L238.126 28.9348C235.775 29.4525 234.278 31.7527 234.741 34.1031L237.581 33.5434ZM237.906 35.0247L237.575 33.5133L234.747 34.1333L235.079 35.6447L237.906 35.0247ZM223.181 57.9758C233.589 55.6933 240.186 45.4196 237.906 35.0247L235.079 35.6447C237.015 44.4728 231.413 53.2073 222.561 55.1485L223.181 57.9758ZM104.003 84.1124L223.181 57.9758L222.561 55.1485L103.383 81.2851L104.003 84.1124ZM81.0253 69.4299C83.3054 79.827 93.5948 86.3951 104.003 84.1124L103.383 81.2851C94.5307 83.2266 85.7891 77.64 83.8525 68.8098L81.0253 69.4299ZM80.7604 68.2223L81.0253 69.4299L83.8525 68.8098L83.5877 67.6022L80.7604 68.2223Z" fill="#DAE3EA"/>
<mask id="mask0" mask-type="alpha" maskUnits="userSpaceOnUse" x="27" y="23" width="392" height="639">
<path fill-rule="evenodd" clip-rule="evenodd" d="M82.1741 67.9122L82.1213 67.6715C81.7699 66.0694 80.1874 65.055 78.5852 65.405C78.5843 65.4052 78.5835 65.4053 78.5826 65.4055L78.5801 65.4061C78.4995 65.4238 78.4205 65.4447 78.343 65.4685L78.3408 65.4586L49.0769 71.8764C34.3841 75.0986 25.0852 89.6144 28.3056 104.299L145.773 639.929C148.994 654.614 163.515 663.906 178.207 660.683L397.075 612.684C411.768 609.462 421.067 594.946 417.846 580.262L300.378 44.631C297.158 29.9459 282.637 20.6548 267.945 23.8769L238.682 30.2946L238.684 30.3045C238.604 30.3153 238.523 30.3295 238.442 30.3471L238.44 30.3476L238.437 30.3482C236.857 30.6962 235.85 32.2429 236.161 33.8233L236.493 35.3347C238.6 44.9462 232.501 54.4503 222.871 56.5621L103.693 82.6988C94.0627 84.8108 84.5472 78.7335 82.4389 69.1199L82.1741 67.9122Z" fill="white"/>
</mask>
<g mask="url(#mask0)">
</g>
<g filter="url(#filter0_d)">
<path fill-rule="evenodd" clip-rule="evenodd" d="M48.0265 193.321C47.5533 191.163 48.919 189.03 51.0768 188.557L314.809 130.718C316.967 130.245 319.1 131.611 319.573 133.769L372.699 376.011C373.172 378.169 371.806 380.302 369.649 380.775L105.916 438.614C103.758 439.087 101.625 437.722 101.152 435.564L48.0265 193.321Z" fill="white"/>
</g>
<path d="M83.8759 216.1C82.5401 216.014 81.5273 215.772 80.8375 215.374C80.1517 214.97 79.724 214.381 79.5544 213.608C79.3625 212.733 79.5525 211.934 80.1246 211.212C80.7005 210.483 81.5482 209.996 82.6674 209.75C83.4305 209.583 84.142 209.581 84.802 209.746C85.467 209.909 86.0192 210.215 86.4586 210.662C86.9031 211.109 87.1928 211.64 87.3278 212.255L85.855 212.578C85.7078 211.907 85.3786 211.427 84.8676 211.139C84.3554 210.846 83.7102 210.785 82.9318 210.956C82.2094 211.114 81.6798 211.398 81.3431 211.808C81.0104 212.212 80.906 212.696 81.0298 213.261C81.1291 213.713 81.4041 214.056 81.8548 214.287C82.3095 214.513 83.0258 214.654 84.0035 214.712C84.9863 214.768 85.7718 214.897 86.3598 215.099C86.9519 215.294 87.4183 215.573 87.7591 215.936C88.105 216.297 88.3398 216.76 88.4637 217.325C88.6611 218.225 88.4685 219.025 87.8858 219.723C87.302 220.416 86.4226 220.892 85.2474 221.15C84.4842 221.317 83.7402 221.328 83.0152 221.183C82.2892 221.033 81.6897 220.743 81.217 220.314C80.7493 219.883 80.4446 219.345 80.3029 218.699L81.7757 218.376C81.923 219.047 82.2863 219.525 82.8657 219.808C83.449 220.086 84.1554 220.133 84.9846 219.952C85.7579 219.782 86.316 219.494 86.6589 219.088C87.0018 218.683 87.1136 218.208 86.9942 217.663C86.8748 217.119 86.592 216.741 86.1457 216.53C85.6983 216.313 84.9417 216.17 83.8759 216.1ZM94.2063 219.185C93.0871 219.43 92.0961 219.264 91.2334 218.685C90.3695 218.101 89.8026 217.194 89.5326 215.963L89.4757 215.703C89.2961 214.884 89.2911 214.12 89.4609 213.411C89.6346 212.696 89.9617 212.096 90.4421 211.612C90.9265 211.122 91.4968 210.805 92.1531 210.661C93.2265 210.426 94.1384 210.596 94.8887 211.173C95.639 211.75 96.1587 212.697 96.4476 214.014L96.5765 214.602L90.9829 215.829C91.1817 216.638 91.5628 217.245 92.126 217.65C92.6932 218.048 93.3279 218.17 94.0299 218.016C94.5285 217.906 94.9284 217.712 95.2297 217.433C95.5311 217.153 95.7746 216.817 95.9605 216.425L96.97 216.907C96.5113 218.122 95.5901 218.881 94.2063 219.185ZM92.4074 211.821C91.8376 211.946 91.4052 212.26 91.11 212.762C90.8137 213.258 90.7018 213.891 90.7743 214.659L94.9103 213.752L94.8869 213.645C94.6889 212.936 94.374 212.424 93.9421 212.108C93.5091 211.787 92.9976 211.692 92.4074 211.821ZM98.7 207.29L99.1385 209.289L100.68 208.951L100.919 210.042L99.3778 210.38L100.501 215.501C100.573 215.832 100.697 216.066 100.871 216.204C101.044 216.336 101.296 216.366 101.626 216.294C101.789 216.258 102.006 216.179 102.278 216.055L102.529 217.2C102.18 217.383 101.83 217.513 101.479 217.59C100.848 217.728 100.33 217.642 99.9263 217.331C99.5221 217.019 99.243 216.513 99.089 215.811L97.9661 210.69L96.4627 211.02L96.2234 209.929L97.7267 209.599L97.2883 207.599L98.7 207.29ZM103.813 206.169L104.251 208.168L105.793 207.83L106.032 208.921L104.491 209.259L105.614 214.38C105.686 214.71 105.81 214.945 105.984 215.082C106.157 215.215 106.409 215.245 106.739 215.173C106.902 215.137 107.119 215.057 107.391 214.934L107.642 216.078C107.293 216.262 106.943 216.392 106.592 216.469C105.961 216.607 105.443 216.521 105.039 216.209C104.635 215.898 104.356 215.391 104.202 214.689L103.079 209.569L101.576 209.898L101.336 208.807L102.84 208.478L102.401 206.478L103.813 206.169ZM110.793 215.387L109.382 215.697L107.571 207.44L108.983 207.13L110.793 215.387ZM106.976 205.275C106.926 205.046 106.952 204.838 107.055 204.65C107.163 204.461 107.354 204.336 107.629 204.276C107.904 204.216 108.129 204.249 108.306 204.375C108.484 204.502 108.597 204.679 108.647 204.908C108.698 205.137 108.668 205.344 108.559 205.528C108.45 205.711 108.258 205.834 107.984 205.894C107.709 205.954 107.484 205.923 107.308 205.802C107.137 205.68 107.026 205.504 106.976 205.275ZM112.585 206.34L112.858 207.368C113.315 206.436 114.052 205.859 115.069 205.635C116.814 205.253 117.91 206.044 118.357 208.01L119.554 213.466L118.142 213.776L116.944 208.312C116.808 207.718 116.574 207.308 116.242 207.082C115.915 206.855 115.469 206.803 114.905 206.927C114.447 207.028 114.072 207.238 113.779 207.558C113.487 207.878 113.288 208.258 113.181 208.697L114.472 214.581L113.06 214.89L111.249 206.633L112.585 206.34ZM120.427 208.876C120.145 207.588 120.218 206.501 120.647 205.612C121.075 204.718 121.78 204.164 122.762 203.949C123.769 203.728 124.633 203.911 125.354 204.5L125.222 203.569L126.511 203.286L128.279 211.345C128.513 212.413 128.38 213.325 127.879 214.08C127.383 214.834 126.601 215.328 125.532 215.562C124.937 215.693 124.327 215.693 123.701 215.564C123.076 215.434 122.564 215.181 122.167 214.804L122.714 213.797C123.483 214.412 124.306 214.623 125.181 214.432C125.867 214.281 126.359 213.97 126.656 213.5C126.958 213.029 127.032 212.442 126.878 211.74L126.722 211.03C126.3 211.805 125.601 212.3 124.624 212.514C123.657 212.726 122.789 212.509 122.018 211.862C121.252 211.214 120.721 210.219 120.427 208.876ZM121.881 208.725C122.086 209.656 122.437 210.346 122.936 210.797C123.433 211.242 124.026 211.39 124.712 211.239C125.603 211.044 126.168 210.496 126.407 209.596L125.581 205.826C124.975 205.132 124.24 204.88 123.375 205.07C122.689 205.22 122.21 205.605 121.941 206.224C121.671 206.843 121.652 207.677 121.881 208.725ZM134.786 207.83C134.703 207.448 134.493 207.185 134.157 207.04C133.825 206.889 133.284 206.816 132.533 206.82C131.788 206.824 131.18 206.765 130.711 206.644C130.247 206.522 129.881 206.336 129.613 206.085C129.35 205.834 129.173 205.504 129.084 205.097C128.936 204.421 129.095 203.786 129.562 203.193C130.034 202.599 130.716 202.204 131.606 202.009C132.542 201.804 133.353 201.879 134.039 202.235C134.73 202.59 135.158 203.144 135.323 203.897L133.904 204.208C133.819 203.822 133.581 203.525 133.189 203.317C132.802 203.109 132.359 203.059 131.86 203.169C131.347 203.281 130.969 203.482 130.728 203.769C130.487 204.056 130.407 204.381 130.486 204.742C130.561 205.083 130.752 205.31 131.059 205.424C131.367 205.538 131.889 205.597 132.626 205.6C133.367 205.603 133.981 205.666 134.467 205.789C134.952 205.911 135.333 206.105 135.61 206.37C135.89 206.628 136.079 206.979 136.176 207.421C136.338 208.159 136.173 208.816 135.681 209.393C135.188 209.965 134.471 210.355 133.53 210.561C132.868 210.706 132.258 210.717 131.697 210.595C131.137 210.472 130.667 210.234 130.285 209.881C129.908 209.521 129.665 209.097 129.558 208.609L130.97 208.299C131.099 208.767 131.37 209.102 131.782 209.305C132.199 209.501 132.697 209.536 133.277 209.409C133.811 209.292 134.215 209.091 134.489 208.807C134.766 208.517 134.865 208.191 134.786 207.83Z" fill="#B5B4B9"/>
<path fill-rule="evenodd" clip-rule="evenodd" d="M66.0208 275.371L68.2129 274.89C69.2919 274.653 70.3583 275.336 70.5949 276.415L73.1655 288.137C73.4022 289.216 72.7193 290.282 71.6404 290.519L69.4482 290.999L66.0208 275.371Z" fill="#59BBE9"/>
<path d="M100.469 278.086L95.8142 279.106L95.4047 282.236L93.8937 282.567L95.6999 270.526L96.9819 270.244L103.669 280.423L102.166 280.753L100.469 278.086ZM95.9924 277.804L99.7698 276.975L96.7376 272.194L95.9924 277.804ZM108.036 278.418C108.54 278.307 108.947 278.058 109.256 277.67C109.566 277.282 109.69 276.855 109.631 276.388L110.966 276.095C111.045 276.574 110.98 277.06 110.774 277.553C110.568 278.046 110.24 278.475 109.793 278.84C109.35 279.204 108.849 279.447 108.289 279.57C107.165 279.817 106.187 279.639 105.357 279.037C104.53 278.429 103.974 277.474 103.689 276.172L103.637 275.935C103.46 275.131 103.451 274.384 103.609 273.694C103.767 273.003 104.083 272.425 104.556 271.958C105.035 271.491 105.651 271.175 106.404 271.009C107.33 270.806 108.159 270.915 108.891 271.336C109.628 271.755 110.114 272.403 110.349 273.28L109.013 273.572C108.855 273.047 108.556 272.654 108.115 272.394C107.678 272.127 107.192 272.052 106.658 272.169C105.941 272.327 105.44 272.708 105.157 273.314C104.878 273.914 104.846 274.702 105.06 275.679L105.119 275.946C105.327 276.898 105.684 277.587 106.188 278.015C106.693 278.443 107.309 278.577 108.036 278.418ZM116.217 276.624C116.721 276.513 117.127 276.264 117.437 275.876C117.746 275.488 117.871 275.061 117.811 274.594L119.147 274.301C119.225 274.78 119.161 275.266 118.955 275.759C118.748 276.252 118.421 276.681 117.973 277.046C117.53 277.41 117.029 277.653 116.47 277.776C115.345 278.022 114.368 277.845 113.537 277.243C112.711 276.635 112.155 275.68 111.869 274.378L111.817 274.141C111.641 273.337 111.632 272.59 111.79 271.9C111.948 271.209 112.263 270.631 112.737 270.164C113.215 269.697 113.831 269.381 114.584 269.215C115.51 269.012 116.339 269.121 117.071 269.542C117.808 269.961 118.294 270.609 118.529 271.486L117.194 271.778C117.036 271.253 116.737 270.86 116.295 270.6C115.858 270.333 115.373 270.258 114.839 270.375C114.121 270.533 113.621 270.914 113.338 271.52C113.059 272.12 113.027 272.908 113.241 273.885L113.299 274.152C113.508 275.103 113.865 275.793 114.369 276.221C114.873 276.649 115.489 276.783 116.217 276.624ZM124.765 275.957C123.645 276.202 122.654 276.036 121.792 275.457C120.928 274.873 120.361 273.966 120.091 272.735L120.034 272.475C119.854 271.656 119.849 270.892 120.019 270.183C120.193 269.468 120.52 268.868 121 268.384C121.485 267.894 122.055 267.577 122.711 267.433C123.785 267.198 124.697 267.368 125.447 267.945C126.197 268.521 126.717 269.469 127.006 270.786L127.135 271.374L121.541 272.601C121.74 273.41 122.121 274.017 122.684 274.421C123.252 274.82 123.886 274.942 124.588 274.788C125.087 274.678 125.487 274.484 125.788 274.205C126.089 273.925 126.333 273.589 126.519 273.197L127.528 273.679C127.07 274.894 126.148 275.653 124.765 275.957ZM122.966 268.593C122.396 268.718 121.963 269.031 121.668 269.533C121.372 270.03 121.26 270.663 121.333 271.431L125.469 270.524L125.445 270.417C125.247 269.708 124.932 269.196 124.5 268.88C124.067 268.559 123.556 268.464 122.966 268.593ZM133.919 271.494C133.836 271.112 133.626 270.849 133.29 270.704C132.959 270.553 132.417 270.479 131.667 270.484C130.921 270.488 130.313 270.429 129.844 270.308C129.38 270.186 129.014 269.999 128.746 269.749C128.483 269.497 128.307 269.168 128.217 268.761C128.069 268.084 128.228 267.45 128.696 266.857C129.168 266.262 129.849 265.868 130.739 265.672C131.675 265.467 132.486 265.543 133.172 265.899C133.863 266.254 134.292 266.808 134.457 267.561L133.037 267.872C132.952 267.485 132.714 267.188 132.322 266.981C131.935 266.773 131.492 266.723 130.994 266.832C130.48 266.945 130.103 267.145 129.862 267.433C129.621 267.72 129.54 268.044 129.619 268.406C129.694 268.746 129.885 268.974 130.193 269.088C130.5 269.201 131.022 269.26 131.759 269.264C132.501 269.267 133.114 269.329 133.6 269.452C134.085 269.575 134.466 269.769 134.743 270.033C135.024 270.292 135.212 270.642 135.31 271.085C135.471 271.822 135.306 272.48 134.814 273.057C134.321 273.629 133.604 274.018 132.663 274.225C132.001 274.37 131.391 274.381 130.831 274.258C130.271 274.136 129.8 273.898 129.418 273.544C129.041 273.185 128.799 272.761 128.691 272.272L130.103 271.963C130.232 272.43 130.503 272.765 130.916 272.968C131.332 273.165 131.83 273.199 132.41 273.072C132.944 272.955 133.348 272.755 133.622 272.471C133.9 272.18 133.999 271.855 133.919 271.494ZM141.978 269.726C141.894 269.345 141.685 269.081 141.349 268.936C141.017 268.785 140.476 268.712 139.725 268.717C138.979 268.72 138.372 268.662 137.903 268.54C137.439 268.418 137.073 268.232 136.804 267.982C136.541 267.73 136.365 267.401 136.276 266.994C136.127 266.317 136.287 265.682 136.754 265.089C137.226 264.495 137.908 264.1 138.798 263.905C139.734 263.7 140.545 263.775 141.231 264.131C141.922 264.486 142.35 265.04 142.515 265.793L141.096 266.105C141.011 265.718 140.773 265.421 140.38 265.214C139.994 265.005 139.551 264.956 139.052 265.065C138.538 265.178 138.161 265.378 137.92 265.665C137.679 265.953 137.598 266.277 137.678 266.638C137.752 266.979 137.944 267.206 138.251 267.32C138.559 267.434 139.081 267.493 139.817 267.497C140.559 267.499 141.173 267.562 141.658 267.685C142.144 267.808 142.525 268.001 142.801 268.266C143.082 268.524 143.271 268.875 143.368 269.317C143.53 270.055 143.365 270.713 142.873 271.29C142.38 271.862 141.663 272.251 140.721 272.457C140.06 272.602 139.449 272.614 138.889 272.491C138.329 272.369 137.858 272.131 137.477 271.777C137.099 271.417 136.857 270.993 136.75 270.505L138.162 270.195C138.291 270.663 138.562 270.998 138.974 271.201C139.391 271.397 139.889 271.432 140.469 271.305C141.003 271.188 141.407 270.987 141.68 270.703C141.958 270.413 142.057 270.087 141.978 269.726Z" fill="#59BBE9"/>
<path d="M115.658 335.821C115.897 336.909 115.923 337.901 115.735 338.795C115.546 339.684 115.163 340.416 114.585 340.991C114.007 341.566 113.27 341.951 112.375 342.147C111.5 342.339 110.677 342.296 109.907 342.017C109.135 341.733 108.474 341.235 107.924 340.524C107.377 339.807 106.984 338.925 106.744 337.88L106.568 337.078C106.334 336.01 106.313 335.025 106.504 334.125C106.696 333.224 107.083 332.484 107.665 331.903C108.251 331.316 108.981 330.926 109.856 330.735C110.746 330.539 111.577 330.584 112.349 330.868C113.124 331.146 113.785 331.654 114.331 332.393C114.875 333.126 115.267 334.035 115.504 335.119L115.658 335.821ZM114.043 335.423C113.754 334.105 113.268 333.153 112.585 332.567C111.901 331.976 111.083 331.785 110.132 331.994C109.206 332.197 108.554 332.71 108.175 333.535C107.799 334.353 107.742 335.389 108.001 336.644L108.18 337.461C108.46 338.738 108.947 339.684 109.642 340.299C110.341 340.908 111.161 341.11 112.102 340.904C113.048 340.696 113.706 340.192 114.074 339.391C114.441 338.586 114.491 337.538 114.224 336.247L114.043 335.423ZM121.233 332.719C121.011 332.73 120.776 332.763 120.526 332.817C119.601 333.02 119.059 333.553 118.901 334.414L120.186 340.274L118.774 340.584L116.964 332.327L118.337 332.026L118.569 332.975C118.871 332.135 119.446 331.623 120.296 331.436C120.57 331.376 120.787 331.366 120.945 331.406L121.233 332.719ZM122.654 335.334C122.376 334.067 122.453 332.984 122.885 332.084C123.316 331.179 124.017 330.62 124.989 330.407C125.955 330.195 126.793 330.358 127.503 330.895L126.559 326.591L127.971 326.282L130.542 338.003L129.244 338.288L128.982 337.418C128.569 338.233 127.858 338.752 126.851 338.973C125.895 339.182 125.028 338.962 124.251 338.311C123.479 337.659 122.954 336.703 122.677 335.441L122.654 335.334ZM124.101 335.185C124.306 336.121 124.66 336.811 125.163 337.255C125.666 337.7 126.258 337.847 126.939 337.698C127.835 337.501 128.4 336.956 128.636 336.062L127.804 332.269C127.212 331.583 126.478 331.336 125.602 331.528C124.911 331.68 124.43 332.065 124.16 332.684C123.891 333.303 123.871 334.137 124.101 335.185ZM136.199 336.923C135.08 337.168 134.089 337.001 133.226 336.423C132.363 335.839 131.796 334.932 131.526 333.7L131.469 333.441C131.289 332.622 131.284 331.858 131.454 331.149C131.628 330.433 131.955 329.834 132.435 329.35C132.919 328.86 133.49 328.543 134.146 328.399C135.22 328.163 136.131 328.334 136.882 328.911C137.632 329.487 138.152 330.434 138.441 331.752L138.569 332.34L132.976 333.566C133.175 334.376 133.556 334.983 134.119 335.387C134.686 335.785 135.321 335.907 136.023 335.753C136.521 335.644 136.921 335.45 137.223 335.17C137.524 334.891 137.768 334.555 137.953 334.162L138.963 334.645C138.504 335.86 137.583 336.619 136.199 336.923ZM134.4 329.559C133.831 329.684 133.398 329.997 133.103 330.499C132.807 330.996 132.695 331.628 132.767 332.396L136.903 331.489L136.88 331.382C136.682 330.674 136.367 330.162 135.935 329.846C135.502 329.525 134.991 329.429 134.4 329.559ZM143.485 327.838C143.264 327.85 143.028 327.883 142.779 327.937C141.853 328.14 141.311 328.672 141.153 329.533L142.439 335.394L141.027 335.704L139.216 327.447L140.59 327.146L140.822 328.095C141.123 327.255 141.698 326.743 142.548 326.556C142.823 326.496 143.039 326.486 143.197 326.526L143.485 327.838ZM150.65 331.298C150.567 330.916 150.357 330.653 150.021 330.508C149.689 330.357 149.148 330.284 148.397 330.288C147.652 330.292 147.044 330.233 146.575 330.112C146.111 329.99 145.745 329.804 145.477 329.553C145.214 329.302 145.037 328.972 144.948 328.565C144.8 327.889 144.959 327.254 145.426 326.661C145.898 326.067 146.58 325.672 147.47 325.477C148.406 325.272 149.217 325.347 149.903 325.703C150.594 326.058 151.022 326.612 151.187 327.365L149.768 327.676C149.683 327.29 149.445 326.993 149.053 326.785C148.666 326.577 148.223 326.527 147.724 326.637C147.211 326.749 146.833 326.949 146.592 327.237C146.351 327.524 146.271 327.849 146.35 328.21C146.425 328.551 146.616 328.778 146.923 328.892C147.231 329.006 147.753 329.065 148.49 329.068C149.231 329.071 149.845 329.134 150.33 329.256C150.816 329.379 151.197 329.573 151.474 329.838C151.754 330.096 151.943 330.446 152.04 330.889C152.202 331.627 152.037 332.284 151.545 332.861C151.052 333.433 150.335 333.822 149.394 334.029C148.732 334.174 148.121 334.185 147.561 334.063C147.001 333.94 146.531 333.702 146.149 333.349C145.772 332.989 145.529 332.565 145.422 332.076L146.834 331.767C146.963 332.234 147.234 332.57 147.646 332.772C148.063 332.969 148.561 333.004 149.141 332.877C149.675 332.759 150.079 332.559 150.353 332.275C150.63 331.985 150.729 331.659 150.65 331.298Z" fill="#B5B4B9"/>
<path d="M131.357 407.44L129.884 407.763L128.758 402.628L123.157 403.856L124.283 408.992L122.818 409.313L120.381 398.202L121.846 397.881L122.894 402.658L128.495 401.43L127.448 396.653L128.92 396.33L131.357 407.44ZM135.272 406.582L133.86 406.892L132.049 398.635L133.461 398.325L135.272 406.582ZM131.455 396.47C131.404 396.241 131.431 396.032 131.533 395.844C131.641 395.655 131.833 395.531 132.107 395.471C132.382 395.41 132.608 395.444 132.785 395.57C132.962 395.696 133.076 395.874 133.126 396.103C133.176 396.332 133.147 396.538 133.038 396.722C132.929 396.906 132.737 397.028 132.462 397.088C132.187 397.149 131.962 397.118 131.786 396.997C131.615 396.874 131.505 396.699 131.455 396.47ZM141.866 402.84C141.782 402.459 141.572 402.196 141.237 402.051C140.905 401.899 140.364 401.826 139.613 401.831C138.867 401.834 138.26 401.776 137.79 401.655C137.326 401.532 136.96 401.346 136.692 401.096C136.429 400.844 136.253 400.515 136.164 400.108C136.015 399.431 136.175 398.796 136.642 398.203C137.114 397.609 137.795 397.215 138.685 397.019C139.622 396.814 140.433 396.889 141.119 397.246C141.81 397.601 142.238 398.155 142.403 398.907L140.983 399.219C140.899 398.832 140.66 398.535 140.268 398.328C139.881 398.119 139.438 398.07 138.94 398.179C138.426 398.292 138.049 398.492 137.808 398.779C137.567 399.067 137.486 399.391 137.565 399.752C137.64 400.093 137.831 400.321 138.139 400.434C138.446 400.548 138.968 400.607 139.705 400.611C140.447 400.613 141.06 400.676 141.546 400.799C142.031 400.922 142.412 401.115 142.689 401.38C142.97 401.638 143.159 401.989 143.256 402.432C143.417 403.169 143.252 403.827 142.76 404.404C142.267 404.976 141.55 405.365 140.609 405.571C139.948 405.716 139.337 405.728 138.777 405.605C138.217 405.483 137.746 405.245 137.365 404.891C136.987 404.531 136.745 404.107 136.638 403.619L138.049 403.309C138.179 403.777 138.449 404.112 138.862 404.315C139.278 404.512 139.776 404.546 140.356 404.419C140.89 404.302 141.294 404.101 141.568 403.817C141.846 403.527 141.945 403.202 141.866 402.84ZM145.263 393.641L145.701 395.641L147.243 395.303L147.482 396.394L145.941 396.732L147.064 401.852C147.136 402.183 147.26 402.417 147.434 402.555C147.607 402.688 147.859 402.718 148.189 402.645C148.352 402.61 148.569 402.53 148.841 402.406L149.092 403.551C148.743 403.734 148.393 403.864 148.042 403.941C147.411 404.08 146.893 403.993 146.489 403.682C146.085 403.371 145.806 402.864 145.652 402.162L144.529 397.041L143.026 397.371L142.786 396.28L144.29 395.95L143.851 393.951L145.263 393.641ZM149.261 399.107C149.084 398.298 149.082 397.536 149.256 396.821C149.434 396.104 149.768 395.509 150.255 395.034C150.748 394.558 151.358 394.24 152.086 394.081C153.21 393.834 154.204 394.024 155.066 394.651C155.934 395.276 156.509 396.235 156.793 397.527L156.815 397.626C156.991 398.43 156.994 399.187 156.824 399.896C156.659 400.599 156.327 401.191 155.83 401.673C155.339 402.154 154.722 402.476 153.979 402.639C152.86 402.885 151.866 402.695 150.998 402.069C150.136 401.443 149.564 400.488 149.283 399.206L149.261 399.107ZM150.717 398.964C150.918 399.879 151.29 400.568 151.834 401.03C152.383 401.491 153.014 401.643 153.726 401.487C154.443 401.33 154.952 400.925 155.251 400.273C155.55 399.615 155.588 398.781 155.366 397.768C155.167 396.863 154.79 396.177 154.235 395.713C153.684 395.242 153.052 395.084 152.34 395.24C151.643 395.393 151.142 395.794 150.836 396.442C150.53 397.09 150.491 397.931 150.717 398.964ZM161.928 393.41C161.707 393.421 161.471 393.454 161.222 393.509C160.296 393.712 159.754 394.244 159.597 395.105L160.882 400.965L159.47 401.275L157.659 393.018L159.033 392.717L159.265 393.666C159.566 392.827 160.142 392.314 160.991 392.127C161.266 392.067 161.482 392.057 161.64 392.097L161.928 393.41ZM167.152 397.423L167.717 390.812L169.228 390.481L167.999 400.74C167.786 402.227 167.121 403.092 166.001 403.338L165.729 403.374L165.181 403.39L164.93 402.245L165.318 402.192C165.796 402.087 166.146 401.909 166.369 401.658C166.596 401.405 166.74 401.003 166.8 400.451L166.929 399.543L162.192 392.024L163.734 391.686L167.152 397.423Z" fill="#B5B4B9"/>
<line x1="112.612" y1="371.113" x2="343.133" y2="320.558" stroke="#B5B4B9" stroke-opacity="0.2"/>
<line x1="84.4295" y1="247.275" x2="308.114" y2="198.219" stroke="#B5B4B9" stroke-opacity="0.2"/>
<line x1="98.8998" y1="308.599" x2="321.393" y2="258.781" stroke="#B5B4B9" stroke-opacity="0.2"/>
<g filter="url(#filter1_d)">
<rect x="33.1769" y="111.605" width="269" height="47" rx="1" transform="rotate(-12.3696 33.1769 111.605)" fill="white"/>
</g>
<path d="M60.371 131.227L61.2295 135.142L58.9402 135.644L56.5034 124.533L60.8379 123.582C61.6723 123.399 62.4383 123.391 63.1361 123.558C63.839 123.724 64.4228 124.052 64.8875 124.542C65.3511 125.027 65.6615 125.628 65.8188 126.345C66.0576 127.434 65.8722 128.376 65.2627 129.171C64.6572 129.959 63.6956 130.498 62.378 130.787L60.371 131.227ZM59.9643 129.373L62.0094 128.924C62.6148 128.791 63.044 128.548 63.2969 128.194C63.555 127.839 63.626 127.397 63.5099 126.868C63.3906 126.323 63.1338 125.918 62.7397 125.653C62.3455 125.387 61.865 125.311 61.298 125.425L59.1995 125.885L59.9643 129.373ZM72.2497 128.462L70.4259 128.862L71.3179 132.929L69.0285 133.431L66.5918 122.321L70.7203 121.415C72.0328 121.127 73.1094 121.198 73.9499 121.627C74.7905 122.056 75.3279 122.804 75.5622 123.872C75.7284 124.63 75.702 125.3 75.4829 125.881C75.2677 126.456 74.8599 126.967 74.2592 127.413L77.6588 131.427L77.6822 131.534L75.225 132.073L72.2497 128.462ZM70.0192 127.008L71.8659 126.603C72.4408 126.477 72.8542 126.234 73.106 125.875C73.3567 125.511 73.4257 125.072 73.313 124.558C73.1981 124.034 72.9576 123.655 72.5917 123.42C72.2308 123.185 71.7425 123.135 71.1269 123.27L69.2878 123.673L70.0192 127.008ZM86.9738 123.937C87.2137 125.031 87.2306 126.032 87.0247 126.941C86.8189 127.85 86.4038 128.608 85.7796 129.214C85.1604 129.819 84.3853 130.224 83.4543 130.428C82.5335 130.63 81.6634 130.589 80.8439 130.304C80.0244 130.02 79.3264 129.512 78.75 128.78C78.1724 128.043 77.7639 127.141 77.5246 126.074L77.4041 125.524C77.1642 124.43 77.1492 123.426 77.359 122.511C77.5729 121.589 77.9899 120.829 78.6102 120.229C79.2344 119.623 80.0095 119.218 80.9354 119.015C81.8613 118.812 82.732 118.856 83.5476 119.146C84.367 119.43 85.0641 119.946 85.6388 120.695C86.2175 121.437 86.6262 122.353 86.865 123.441L86.9738 123.937ZM84.5435 123.942C84.288 122.777 83.8852 121.938 83.3353 121.424C82.7854 120.91 82.1238 120.738 81.3505 120.907C80.5823 121.076 80.0554 121.506 79.7699 122.198C79.4833 122.885 79.464 123.806 79.7122 124.962L79.831 125.504C80.0798 126.638 80.4814 127.473 81.0358 128.007C81.5902 128.541 82.2592 128.722 83.0426 128.551C83.8108 128.382 84.3352 127.952 84.6156 127.262C84.8949 126.566 84.9105 125.64 84.6623 124.484L84.5435 123.942ZM95.4896 122.869L91.0941 123.833L92.0898 128.374L89.8005 128.876L87.3638 117.765L94.5981 116.179L95.0048 118.033L90.0598 119.117L90.6891 121.987L95.0846 121.023L95.4896 122.869ZM100.797 126.464L98.5076 126.966L96.0709 115.856L98.3603 115.353L100.797 126.464ZM104.812 123.656L109.673 122.59L110.076 124.429L102.926 125.998L100.489 114.887L102.779 114.384L104.812 123.656ZM117.025 117.859L112.63 118.823L113.283 121.799L118.441 120.667L118.845 122.506L111.397 124.14L108.96 113.029L116.393 111.399L116.799 113.253L111.656 114.381L112.237 117.029L116.632 116.065L117.025 117.859Z" fill="#59BBE9"/>
<g clip-path="url(#clip0)">
<circle cx="264.337" cy="84.9681" r="18.5" transform="rotate(-12.3696 264.337 84.9681)" fill="#DAE3EA"/>
<path fill-rule="evenodd" clip-rule="evenodd" d="M267.024 80.7714C267.441 82.6731 266.239 84.5512 264.337 84.9683C262.435 85.3853 260.557 84.1828 260.14 82.2811C259.723 80.3794 260.926 78.5013 262.827 78.0843C264.729 77.6672 266.607 78.8697 267.024 80.7714ZM258.585 91.641C258.083 89.3521 262.417 87.1932 264.714 86.6893C267.012 86.1854 271.851 86.3327 272.353 88.6216L272.542 89.4821C272.646 89.9554 272.344 90.4275 271.87 90.5313L259.823 93.1733C259.35 93.2771 258.878 92.9748 258.774 92.5015L258.585 91.641Z" fill="#94A3B1"/>
</g>
<defs>
<filter id="filter0_d" x="31.9329" y="116.625" width="356.86" height="340.083" filterUnits="userSpaceOnUse" color-interpolation-filters="sRGB">
<feFlood flood-opacity="0" result="BackgroundImageFix"/>
<feColorMatrix in="SourceAlpha" type="matrix" values="0 0 0 0 0 0 0 0 0 0 0 0 0 0 0 0 0 0 127 0" result="hardAlpha"/>
<feOffset dy="2"/>
<feGaussianBlur stdDeviation="8"/>
<feColorMatrix type="matrix" values="0 0 0 0 0.801252 0 0 0 0 0.739003 0 0 0 0 0.987998 0 0 0 0.15 0"/>
<feBlend mode="normal" in2="BackgroundImageFix" result="effect1_dropShadow"/>
<feBlend mode="normal" in="SourceGraphic" in2="effect1_dropShadow" result="shape"/>
</filter>
<filter id="filter1_d" x="30.3677" y="52.1711" width="278.442" height="109.152" filterUnits="userSpaceOnUse" color-interpolation-filters="sRGB">
<feFlood flood-opacity="0" result="BackgroundImageFix"/>
<feColorMatrix in="SourceAlpha" type="matrix" values="0 0 0 0 0 0 0 0 0 0 0 0 0 0 0 0 0 0 127 0" result="hardAlpha"/>
<feOffset dy="1"/>
<feGaussianBlur stdDeviation="1.5"/>
<feComposite in2="hardAlpha" operator="out"/>
<feColorMatrix type="matrix" values="0 0 0 0 0 0 0 0 0 0 0 0 0 0 0 0 0 0 0.25 0"/>
<feBlend mode="normal" in2="BackgroundImageFix" result="effect1_dropShadow"/>
<feBlend mode="normal" in="SourceGraphic" in2="effect1_dropShadow" result="shape"/>
</filter>
<clipPath id="clip0">
<rect width="37" height="37" fill="white" transform="translate(242.303 70.8606) rotate(-12.3696)"/>
</clipPath>
</defs>
</svg>
